<?xml version="1.0" encoding="UTF-8" standalone="no"?>
<svg
   version="1.1"
   id="Layer_1"
   x="0px"
   y="0px"
   width="100%"
   viewBox="0 0 1254 1254"
   enable-background="new 0 0 1254 1254"
   xml:space="preserve"
   sodipodi:docname="chat_lnbits.svg"
   inkscape:version="1.4.2 (ebf0e940, 2025-05-08)"
   xmlns:inkscape="http://www.inkscape.org/namespaces/inkscape"
   xmlns:sodipodi="http://sodipodi.sourceforge.net/DTD/sodipodi-0.dtd"
   xmlns="http://www.w3.org/2000/svg"
   xmlns:svg="http://www.w3.org/2000/svg"><defs
   id="defs26" /><sodipodi:namedview
   id="namedview26"
   pagecolor="#ffffff"
   bordercolor="#000000"
   borderopacity="0.25"
   inkscape:showpageshadow="2"
   inkscape:pageopacity="0.0"
   inkscape:pagecheckerboard="0"
   inkscape:deskcolor="#d1d1d1"
   inkscape:zoom="0.61213431"
   inkscape:cx="628.94694"
   inkscape:cy="628.13013"
   inkscape:window-width="1792"
   inkscape:window-height="988"
   inkscape:window-x="0"
   inkscape:window-y="30"
   inkscape:window-maximized="1"
   inkscape:current-layer="Layer_1" />
<rect
   style="fill:#150f1a;fill-opacity:1;stroke-width:1.00813"
   id="rect31"
   width="1257.2612"
   height="1256.2603"
   x="7.2623106e-06"
   y="0.10916617"
   rx="256.89206" /><path
   fill="#150f1a"
   opacity="1"
   stroke="none"
   d="M 0.999995,1024 C 1,760.3053 1,496.6106 1.373518,232.33987 2.162566,230.41457 2.875205,229.08118 2.94856,227.71353 3.882549,210.29979 8.108424,193.5143 13.628522,177.14932 22.727037,150.1757 35.90947,125.2547 52.991623,102.36925 63.880825,87.780678 76.198875,74.493065 90.043648,62.888046 109.72611,46.389732 131.1864,32.436794 155.05154,22.438452 176.16939,13.591099 197.84741,6.924207 220.60213,3.888131 224.46117,3.373235 228.20366,1.984836 232,1 c 264.02805,0 528.05609,0 792.6577,0.368731 1.4203,0.779558 2.2383,1.470533 3.1177,1.560409 24.2941,2.482949 47.572,8.753433 70.1119,18.122196 20.5528,8.542723 39.7885,19.475581 57.3029,33.016539 19.182,14.830364 36.7198,31.630855 50.2306,51.990105 8.3302,12.55306 16.3511,25.4038 23.3415,38.73412 13.8859,26.48021 22.2318,54.72581 24.3267,84.69382 0.085,1.20997 1.2494,2.34443 1.911,3.51408 0,263.02805 0,526.05609 -0.3716,789.6646 -0.7856,1.5944 -1.4901,2.5859 -1.5708,3.6259 -1.3042,16.7841 -4.6139,33.1668 -9.7326,49.1891 -10.0165,31.3522 -25.2291,59.9332 -45.9939,85.4874 -11.2308,13.8208 -23.7381,26.4363 -37.6591,37.5492 -17.0793,13.6343 -35.6556,24.8902 -55.5668,33.9361 -21.9366,9.966 -44.859,16.4073 -68.7235,19.6615 -3.8535,0.5255 -7.5907,1.9027 -11.3817,2.8862 -263.6947,0 -527.3894,0 -791.65881,-0.3721 -1.58689,-0.7852 -2.57314,-1.4729 -3.61504,-1.5711 -20.09206,-1.8966 -39.49841,-6.6526 -58.51663,-13.3499 -19.57051,-6.8918 -38.22304,-15.764 -54.96546,-27.8704 -14.61554,-10.5681 -28.958789,-21.8364 -41.807811,-34.441 C 57.915916,1162.1703 45.220493,1144.4308 34.485081,1125.3384 18.671358,1097.2145 8.110455,1067.4138 3.890315,1035.379 3.382718,1031.526 1.985091,1027.7902 0.999995,1024 M 849.68372,870.0705 c 0.18609,-0.33185 0.37219,-0.6637 1.1192,-1.25678 0.70752,-0.99994 1.41498,-1.99994 2.68841,-3.32806 9.76026,-11.73126 19.56092,-23.42926 29.25202,-35.21735 2.38061,-2.89569 4.40393,-6.08502 7.18139,-9.42877 9.97437,-11.74323 20.06537,-23.38971 29.90222,-35.24695 35.95435,-43.33923 71.82319,-86.74945 107.72664,-130.13098 5.1335,-6.20288 3.198,-10.58685 -4.8604,-12.36823 0.649,-0.17163 1.2978,-0.3432 1.9468,-0.51483 -40.054,-0.5686 -79.98296,-0.57782 -119.91185,-0.52606 -1.24487,0.002 -2.48895,0.63324 -4.50733,0.92505 -3.98669,-2.41797 -2.87365,-5.49646 -1.02099,-8.56336 7.14673,-11.83111 14.26495,-23.68042 21.52557,-35.44159 28.17536,-45.63995 56.4433,-91.22305 84.4895,-136.94216 1.4667,-2.39109 2.5079,-6.56284 1.3814,-8.59201 -1.0968,-1.97528 -5.2316,-3.14347 -8.03948,-3.15662 -39.99139,-0.18759 -79.98401,-0.1171 -119.97631,-0.11224 -14.83033,0.002 -29.66095,0.0409 -44.49085,-0.0383 -4.02716,-0.0215 -7.38226,1.01379 -8.78375,5.08154 -2.59857,7.5426 -4.96478,15.16522 -7.91602,23.28699 -0.62774,1.88067 -1.2511,3.76281 -1.88391,5.64175 -4.88885,14.51569 -9.7796,29.03073 -15.17688,44.09805 -11.62414,33.63336 -23.24109,67.26923 -34.87439,100.89942 -12.50915,36.16247 -25.05676,72.3117 -37.52759,108.48736 -1.98748,5.76514 0.37623,9.13208 6.43482,9.27497 6.48877,0.15301 12.98321,0.0728 19.47522,0.0776 21.97314,0.0164 43.94635,0.007 65.91943,0.0498 5.82953,0.0114 7.03314,1.77997 5.24671,7.4118 -0.85224,2.68689 -1.72645,5.3667 -2.57569,8.08893 0,0 0.0108,0.0394 -0.3529,0.43256 -0.0324,0.34722 -0.0648,0.69439 -0.31971,1.23577 0,0 0.10749,0.27503 -0.40094,0.8332 -0.41052,1.65051 -0.82104,3.30108 -1.35156,5.7099 -0.43414,1.70904 -0.86835,3.41803 -2.00989,5.23584 -0.29028,0.3869 -0.70037,0.73156 -0.85357,1.16668 -5.92944,16.84064 -11.8244,33.69348 -17.74793,50.53626 -5.32104,15.12982 -10.67614,30.24768 -16.00567,45.37451 -13.32105,37.80847 -26.67212,75.60651 -39.85291,113.46381 -0.69879,2.00701 0.0621,4.52227 0.14356,6.80096 1.95459,-1.10834 4.37982,-1.80176 5.78436,-3.39502 7.04114,-7.98737 13.85425,-16.17767 20.67523,-24.35699 17.15302,-20.56897 34.26721,-41.17042 51.95355,-62.14496 2.36322,-3.00427 4.72644,-6.00849 7.67585,-9.37268 2.04657,-2.68409 4.09313,-5.36817 6.51318,-8.62403 1.55133,-1.68524 3.10266,-3.37048 5.14221,-5.32562 0.25891,-0.67444 0.51788,-1.34882 1.24762,-2.11108 0,0 0.36719,-0.30738 0.76617,-0.34351 0.25232,-0.15863 0.36884,-0.38666 0.91517,-1.05066 1.09472,-1.43365 2.18945,-2.86737 3.75512,-4.58148 0.38843,-0.60071 0.77686,-1.20142 1.05139,-1.83881 0,0 -0.0109,0.1192 0.52778,-0.10363 M 614.70789,980.7099 c 28.44396,3.3161 56.85192,2.97723 85.27679,-0.44641 5.58948,-0.67322 8.49213,-3.05457 10.15979,-8.43579 4.73004,-15.26264 9.90826,-30.38678 14.95166,-45.55164 4.41242,-13.26788 8.94977,-26.49493 13.24725,-39.79968 0.60334,-1.8678 0.15351,-4.07581 0.19117,-6.12634 -2.06653,-0.0117 -4.13349,-0.05 -6.19928,-0.0151 -0.47992,0.008 -0.94684,0.31525 -1.43451,0.40149 -18.02002,3.18311 -35.93012,7.43915 -54.08588,9.31305 -42.14575,4.3501 -83.00348,-2.68134 -122.83105,-16.56506 -10.07581,-3.51227 -20.27851,-3.44471 -30.44617,-0.21711 -30.14124,9.568 -60.27435,19.16169 -90.43109,28.68055 -1.46948,0.46392 -3.1333,0.31219 -4.70661,0.44714 0.0106,-1.70563 -0.38809,-3.53778 0.0938,-5.09784 6.3733,-20.62958 12.91791,-41.20618 19.31955,-61.82709 4.09568,-13.19299 3.79471,-26.18219 -4.35693,-37.74566 -6.88696,-9.76947 -15.09915,-18.59589 -22.16495,-28.24952 -53.1167,-72.57037 -70.15313,-152.99578 -49.78244,-240.48632 15.2052,-65.30503 50.79663,-118.28846 103.67795,-159.34238 64.56509,-50.12457 138.147,-68.40497 218.57553,-58.02063 65.34143,8.43643 120.88269,37.62735 167.1051,84.61932 1.95667,1.9892 5.41395,3.5185 8.18384,3.53739 34.99414,0.23901 69.99042,0.16592 104.98615,0.14816 1.69024,-8.5e-4 3.38037,-0.22702 5.25952,-0.36182 -0.32996,-1.27197 -0.35535,-1.806 -0.5943,-2.21539 -1.00671,-1.72507 -2.0462,-3.43283 -3.12878,-5.11151 -20.46363,-31.73087 -45.09882,-59.80457 -73.80378,-84.33154 -52.59784,-44.94232 -112.49163,-74.46302 -181.01251,-85.79688 -73.0188,-12.07783 -144.47754,-6.17435 -212.95816,22.20291 -93.33368,38.67594 -161.68051,104.25644 -202.85171,196.85337 -38.40738,86.38076 -43.9675,175.26925 -16.85517,265.94418 13.02722,43.56842 34.586,82.85889 61.48404,119.32989 2.08447,2.82636 3.48782,5.40198 2.31201,9.12116 -13.95205,44.1308 -27.68142,88.33234 -41.75113,132.42541 -5.20843,16.32264 -2.49365,30.81513 9.33551,42.96669 11.72928,12.0491 26.35904,14.3217 42.01947,9.3521 56.66425,-17.982 113.28159,-36.11255 169.8686,-54.33624 4.55328,-1.46637 8.61975,-1.31421 13.10345,0.0448 22.6806,6.87494 45.7467,12.00702 70.24323,14.69232 M 635.5826,568.03507 c -19.43286,9.45075 -27.23334,29.18476 -19.12469,48.38215 7.28943,17.25781 27.91485,26.14831 45.90497,19.78711 18.76049,-6.63361 28.70904,-27.85834 21.97442,-46.88141 -6.93628,-19.59259 -27.78839,-28.9701 -48.7547,-21.28785 M 520.17458,565.0756 c -3.47211,0.25293 -6.99664,0.20813 -10.40732,0.80945 -16.06353,2.83185 -27.90603,16.03839 -29.54623,32.70026 -1.57971,16.04767 8.1369,31.53296 23.49713,37.44714 15.21008,5.85651 32.81372,0.81275 42.24695,-12.69879 16.06769,-23.01441 2.78619,-53.81073 -25.79053,-58.25806 z"
   id="path1"
   style="display:none;fill:#150f1a;fill-opacity:1" />
<path
   fill="#000000"
   opacity="1"
   stroke="none"
   d="m 0.999995,1024.4686 c 0.985096,3.3216 2.382723,7.0574 2.89032,10.9104 4.22014,32.0348 14.781043,61.8355 30.594766,89.9594 10.735412,19.0924 23.430835,36.8319 38.951168,52.0571 12.849022,12.6046 27.192271,23.8729 41.807811,34.441 16.74242,12.1064 35.39495,20.9786 54.96546,27.8704 19.01822,6.6973 38.42457,11.4533 58.51663,13.3499 1.0419,0.098 2.02815,0.7859 3.15709,1.5711 C 155.07295,1255 78.145912,1255 1,1255 c 0,-76.6875 0,-153.3751 -5e-6,-230.5314 z"
   id="path2"
   style="display:none" />
<path
   fill="#000000"
   opacity="1"
   stroke="none"
   d="m 231.53134,1 c -3.32768,0.984836 -7.07017,2.373235 -10.92921,2.888131 -22.75472,3.036076 -44.43274,9.702968 -65.55059,18.550321 C 131.1864,32.436794 109.72611,46.389732 90.043648,62.888046 76.198875,74.493065 63.880825,87.780678 52.991623,102.36925 35.90947,125.2547 22.727037,150.1757 13.628522,177.14932 8.108424,193.5143 3.882549,210.29979 2.94856,227.71353 2.875205,229.08118 2.162566,230.41457 1.373518,231.88193 1,155.07295 1,78.145912 1,1 77.687424,1 154.37505,1 231.53134,1 Z"
   id="path3"
   style="display:none" />
<path
   fill="#000000"
   opacity="1"
   stroke="none"
   d="m 1024.4686,1255 c 3.3224,-0.9835 7.0596,-2.3607 10.9131,-2.8862 23.8645,-3.2542 46.7869,-9.6955 68.7235,-19.6615 19.9112,-9.0459 38.4875,-20.3018 55.5668,-33.9361 13.921,-11.1129 26.4283,-23.7284 37.6591,-37.5492 20.7648,-25.5542 35.9774,-54.1352 45.9939,-85.4874 5.1187,-16.0223 8.4284,-32.405 9.7326,-49.1891 0.081,-1.04 0.7852,-2.0315 1.5708,-3.1681 C 1255,1100.2603 1255,1177.5204 1255,1255 c -76.6875,0 -153.3751,0 -230.5314,0 z"
   id="path4"
   style="display:none" />
<path
   fill="#000000"
   opacity="1"
   stroke="none"
   d="m 1255,232.53134 c -0.6616,-0.70099 -1.8264,-1.83545 -1.911,-3.04542 -2.0949,-29.96801 -10.4408,-58.21361 -24.3267,-84.69382 -6.9904,-13.33032 -15.0113,-26.18106 -23.3415,-38.73412 C 1191.91,85.69873 1174.3722,68.898239 1155.1902,54.067875 1137.6758,40.526917 1118.4401,29.594059 1097.8873,21.051336 1075.3474,11.682573 1052.0695,5.412089 1027.7754,2.92914 1026.896,2.839264 1026.078,2.148289 1025.1157,1.368731 1101.594,1 1178.1881,1 1255,1 c 0,77.02076 0,154.04172 0,231.53134 z"
   id="path5"
   style="display:none" />
<path
   fill="#DEDCE2"
   opacity="1.000000"
   stroke="none"
   d=" M614.254578,980.667480   C590.211365,978.024597 567.145264,972.892517 544.464661,966.017578   C539.980957,964.658569 535.914490,964.506409 531.361206,965.972778   C474.774200,984.196472 418.156860,1002.327026 361.492615,1020.308960   C345.832184,1025.278564 331.202423,1023.005981 319.473145,1010.956909   C307.643982,998.805359 304.929199,984.312866 310.137634,967.990234   C324.207336,923.897156 337.936707,879.695618 351.888763,835.564819   C353.064575,831.845642 351.661224,829.270020 349.576752,826.443665   C322.678711,789.972656 301.119934,750.682190 288.092712,707.113770   C260.980377,616.438843 266.540497,527.550354 304.947876,441.169586   C346.119080,348.572662 414.465912,282.992157 507.799591,244.316223   C576.280212,215.938965 647.738953,210.035477 720.757751,222.113312   C789.278625,233.447174 849.172424,262.967865 901.770264,307.910187   C930.475220,332.437164 955.110413,360.510864 975.574036,392.241730   C976.656616,393.920410 977.696106,395.628174 978.702820,397.353241   C978.941772,397.762634 978.967163,398.296661 979.297119,399.568634   C977.417969,399.703430 975.727844,399.929596 974.037598,399.930450   C939.041870,399.948212 904.045593,400.021301 869.051453,399.782288   C866.281555,399.763397 862.824280,398.234100 860.867615,396.244904   C814.645203,349.252930 759.103943,320.062012 693.762512,311.625580   C613.333984,301.241241 539.752075,319.521637 475.186981,369.646210   C422.305664,410.700134 386.714233,463.683563 371.509033,528.988586   C351.138336,616.479126 368.174774,696.904541 421.291473,769.474915   C428.357269,779.128540 436.569458,787.954956 443.456421,797.724426   C451.608063,809.287903 451.909027,822.277100 447.813354,835.470093   C441.411713,856.091003 434.867096,876.667603 428.493805,897.297180   C428.011871,898.857239 428.410614,900.689392 428.399963,902.395020   C429.973267,902.260071 431.637085,902.411804 433.106567,901.947876   C463.263306,892.429016 493.396423,882.835327 523.537659,873.267334   C533.705322,870.039734 543.908020,869.972168 553.983826,873.484436   C593.811401,887.368164 634.669128,894.399597 676.814880,890.049500   C694.970642,888.175598 712.880737,883.919556 730.900757,880.736450   C731.388428,880.650208 731.855347,880.343079 732.335266,880.334961   C734.401062,880.300049 736.468018,880.338379 738.534546,880.350037   C738.496887,882.400574 738.946716,884.608582 738.343384,886.476379   C734.045898,899.781128 729.508545,913.008179 725.096130,926.276062   C720.052734,941.440918 714.874512,956.565063 710.144470,971.827698   C708.476807,977.208923 705.574158,979.590271 699.984680,980.263489   C671.559814,983.687134 643.151855,984.026001 614.254578,980.667480  z"
   id="path6" />



<path
   fill="#E4E2E8"
   opacity="1.000000"
   stroke="none"
   d=" M635.934326,567.874329   C656.548950,560.352844 677.401062,569.730347 684.337341,589.322937   C691.071960,608.346008 681.123413,629.570740 662.362915,636.204346   C644.372803,642.565552 623.747375,633.675049 616.457947,616.417236   C608.349304,597.219849 616.149780,577.485840 635.934326,567.874329  z"
   id="path10" />
<path
   fill="#E3E2E8"
   opacity="1.000000"
   stroke="none"
   d=" M520.619629,565.121521   C548.751343,569.522949 562.032837,600.319275 545.965149,623.333679   C536.531921,636.845215 518.928284,641.888977 503.718201,636.032471   C488.357971,630.118286 478.641357,614.632996 480.221069,598.585327   C481.861267,581.923462 493.703766,568.716919 509.767303,565.885071   C513.177979,565.283752 516.702515,565.328552 520.619629,565.121521  z"
   id="path11" />















<path
   style="fill:#ed33e5;fill-opacity:1;stroke-width:1.63069"
   d="m 744.40962,989.25128 c 0,-1.30341 16.24609,-48.48717 36.10242,-104.85281 44.67331,-126.81296 45.43204,-129.04625 45.43204,-133.72663 v -3.81618 h -44.73779 c -42.95048,0 -53.10356,-0.95409 -53.10356,-4.99016 0,-1.50423 89.19989,-261.42835 97.19936,-283.23416 l 2.54242,-6.93043 h 87.59622 c 62.5663,0 88.11897,0.52274 89.42557,1.8294 1.0062,1.00617 1.3889,3.02414 0.8505,4.48439 -0.5385,1.46025 -23.12144,38.6117 -50.18441,82.55877 -58.45686,94.92712 -60.43614,98.3415 -58.26547,100.51218 1.04294,1.04294 23.29699,1.57552 61.2888,1.46674 49.30878,-0.14119 60.65458,0.2484 65.43788,2.24701 3.1827,1.32979 5.7866,3.02577 5.7866,3.76886 0,2.46828 -5.1714,8.89499 -68.43688,85.04796 -34.55846,41.59821 -66.78579,80.49015 -71.61626,86.42653 -14.30315,17.57769 -46.5168,56.38653 -47.53592,57.26804 -0.51844,0.44844 -6.00272,7.05273 -12.18729,14.67621 -32.64843,40.24438 -80.45052,96.62994 -83.36145,98.33005 -1.46386,0.85497 -2.23278,0.48793 -2.23278,-1.06577 z"
   id="path27" /><path
   style="fill:#ed33e5;fill-opacity:1;stroke-width:1.63069"
   d="m 504.71506,635.5408 c -9.06188,-3.02355 -18.99093,-14.14868 -22.06495,-24.72297 -2.44781,-8.42015 -2.44248,-9.78783 0.0719,-18.46998 4.556,-15.73191 18.97464,-26.56826 35.21102,-26.46288 12.99749,0.0844 28.90395,12.98056 32.50489,26.35344 7.35839,27.32698 -18.94427,52.23725 -45.72285,43.30239 z"
   id="path31" /><path
   style="fill:#ed33e5;fill-opacity:1;stroke-width:1.63069"
   d="m 638.41482,635.45751 c -8.55584,-2.71187 -20.12192,-15.09337 -22.69961,-24.29995 -5.11829,-18.28075 5.31784,-37.03537 24.16597,-43.4283 12.42795,-4.21532 24.29689,-1.02426 34.63234,9.31119 14.9716,14.9716 14.9716,34.39614 0,49.36774 -10.49124,10.49123 -22.24975,13.43889 -36.0987,9.04932 z"
   id="path32" /><path
   style="fill:#ed33e5;fill-opacity:1;stroke-width:0.092975"
   d="m 647.61737,638.12429 c -0.17898,-0.0206 -0.7438,-0.0811 -1.25516,-0.13439 -2.41331,-0.2517 -5.46244,-0.90954 -7.77022,-1.67643 -7.79532,-2.59041 -14.4818,-7.56559 -18.85824,-14.03179 -3.32641,-4.91478 -5.459,-10.8448 -6.20242,-17.24686 -0.18468,-1.59046 -0.21324,-5.393 -0.052,-6.92664 1.16769,-11.10711 7.08656,-20.50005 17.07714,-27.10053 2.69193,-1.77848 4.93893,-2.95094 6.83366,-3.56575 10.7392,-3.4847 21.62984,-2.60462 30.71215,2.48187 10.44772,5.85118 17.26509,16.75586 18.20153,29.11416 0.13164,1.73728 0.0615,5.02854 -0.14358,6.74069 -0.98697,8.23866 -4.57396,15.81712 -10.22687,21.60694 -2.92052,2.99126 -5.80131,5.11968 -9.39557,6.94174 -3.77532,1.91385 -7.41125,3.02592 -11.87521,3.63212 -0.99536,0.13517 -6.237,0.25783 -7.0452,0.16487 z m 6.6942,-0.91637 c 5.6508,-0.79145 10.71753,-2.96884 15.63839,-6.72048 3.08546,-2.35234 6.58294,-5.88309 8.81082,-8.89462 4.00922,-5.41946 6.28903,-11.0538 6.88433,-17.01402 0.1296,-1.29753 0.12941,-4.39249 -3.4e-4,-5.69518 -0.8067,-8.09888 -4.79035,-15.76282 -11.63733,-22.38844 -11.1024,-10.74345 -23.77287,-13.36701 -37.07567,-7.67691 -11.59763,4.96073 -19.82491,14.98574 -21.98932,26.79416 -0.72158,3.93669 -0.72099,8.42143 0.002,12.33653 0.6346,3.43828 1.45823,5.76851 3.05181,8.63415 4.04181,7.2682 11.40276,14.64431 17.75944,17.79601 2.80486,1.39068 6.99781,2.48829 11.16079,2.92161 1.61797,0.16842 5.91543,0.11448 7.39547,-0.0928 z"
   id="path33" /><path
   style="fill:#ed33e5;fill-opacity:1;stroke-width:0.092975"
   d="m 514.01229,638.30896 c -4.79683,-0.41468 -9.34534,-1.68125 -13.47868,-3.75323 -10.85015,-5.43901 -18.33691,-15.75069 -20.07766,-27.65339 -1.1948,-8.1696 0.73929,-17.23526 5.23376,-24.53224 5.22458,-8.48235 13.63157,-14.35819 23.30193,-16.28628 2.17434,-0.43352 4.22645,-0.61917 8.889,-0.80416 3.03983,-0.12061 3.28672,-0.0985 5.89403,0.52741 5.77526,1.38644 10.83611,3.84012 15.34087,7.43778 1.56503,1.24988 4.31034,3.98841 5.53823,5.52453 3.98523,4.98564 6.61492,10.77368 7.65979,16.8595 0.6798,3.95944 0.68015,8.32741 9.7e-4,12.30364 -1.49903,8.77612 -6.46404,17.27332 -13.24547,22.66854 -5.06397,4.02882 -11.13634,6.59454 -17.7395,7.49536 -1.10089,0.15019 -2.01972,0.19899 -4.15612,0.22076 -1.50851,0.0154 -2.93103,0.0117 -3.16115,-0.008 z m 5.81094,-1.10133 c 8.33842,-0.99921 16.07064,-4.88146 21.89152,-10.99145 8.69866,-9.13069 11.96714,-21.57781 8.83719,-33.65411 -1.10485,-4.26288 -3.36347,-8.46828 -6.73357,-12.53752 -1.80996,-2.18544 -5.1147,-5.32143 -7.347,-6.97184 -5.21472,-3.85542 -10.26993,-6.1225 -15.59877,-6.99552 -1.36302,-0.2233 -5.37393,-0.2194 -7.23221,0.007 -4.43646,0.54059 -8.38676,1.73611 -12.31918,3.72827 -8.24814,4.17852 -14.6781,11.43359 -17.85896,20.15067 -0.75755,2.07605 -2.02652,6.72122 -2.42102,8.86233 -0.2431,1.31941 -0.24298,4.53918 2.2e-4,5.85742 0.38391,2.08094 1.52969,6.25609 2.25807,8.22829 1.93936,5.25112 5.33466,10.41234 9.79144,14.88404 3.06965,3.07992 5.74055,5.08575 8.8545,6.64967 2.87025,1.44153 7.31825,2.58195 11.36952,2.91504 1.41394,0.11625 5.05099,0.0423 6.50825,-0.13233 z"
   id="path34" /><path
   style="fill:#ed33e5;fill-opacity:1;stroke-width:0.092975"
   d="m 513.77986,637.27932 c -3.73315,-0.24728 -8.06634,-1.25131 -10.9267,-2.53178 -8.27682,-3.70523 -16.80296,-13.60626 -19.88307,-23.08931 -0.86875,-2.67472 -1.7287,-6.14464 -1.96754,-7.93905 -0.14673,-1.10243 -0.0691,-3.78513 0.14356,-4.96017 0.33674,-1.86071 1.39149,-5.79569 2.16817,-8.08883 2.22404,-6.56643 6.3687,-12.4355 11.9177,-16.87609 1.09235,-0.87415 3.72187,-2.63102 4.99925,-3.34015 5.47925,-3.04181 11.97497,-4.65979 18.01143,-4.48637 2.47204,0.071 4.46946,0.41692 6.9126,1.19711 11.35263,3.62534 22.31459,14.44996 25.15995,24.84474 2.37919,8.69176 1.53706,17.38173 -2.45477,25.33107 -4.80875,9.57613 -13.85323,16.72189 -24.18355,19.10668 -3.14397,0.7258 -6.82727,1.03549 -9.89703,0.83215 z"
   id="path35" /><path
   style="fill:#ed33e5;fill-opacity:1;stroke-width:0.092975"
   d="m 513.77986,637.28606 c -3.64873,-0.29457 -7.45459,-1.12418 -10.18077,-2.21921 -8.23481,-3.3077 -17.0722,-13.15399 -20.40409,-22.73349 -0.70756,-2.0343 -1.70034,-5.72711 -2.06214,-7.67044 -0.24358,-1.30834 -0.24253,-4.52635 0.002,-5.85742 0.33927,-1.84744 1.42192,-5.93353 2.11859,-7.99585 2.25782,-6.68373 6.34657,-12.48609 12.01241,-17.04689 1.03845,-0.83591 3.66706,-2.58661 4.97651,-3.31444 3.30971,-1.83963 7.33575,-3.27778 11.02725,-3.93907 2.34644,-0.42033 3.53295,-0.51983 6.18284,-0.51845 2.85839,10e-4 3.83113,0.11716 6.18284,0.73531 9.97181,2.62107 20.07023,10.96645 24.81683,20.50874 0.95135,1.91254 1.5369,3.48729 2.05525,5.52727 0.79712,3.13712 1.10282,5.60515 1.09979,8.87911 -0.003,3.24993 -0.28364,5.50564 -1.06992,8.60019 -2.527,9.9454 -9.61472,18.67854 -18.94256,23.34007 -3.78293,1.8905 -7.55025,3.02701 -11.72488,3.53711 -1.11237,0.13593 -5.11662,0.24603 -6.08986,0.16746 z"
   id="path36" /></svg>
